<svg width="782" height="122" viewBox="0 0 782 122" fill="none" xmlns="http://www.w3.org/2000/svg">
<path d="M0.400001 120V7.19999H41.2L63.92 114.72H69.2L91.92 7.19999H132.72V120H112.08V25.92L115.92 12.48H110.48L86.8 120H46.48L22.64 12.48H17.36L21.04 25.92V120H0.400001ZM181.27 103.68C189.057 103.68 195.19 101.067 199.67 95.84C204.257 90.5067 206.55 82.5067 206.55 71.84V39.68H227.03V120H206.55V108.64L210.23 96.32H204.95C203.243 103.893 199.777 110.027 194.55 114.72C189.43 119.307 182.71 121.6 174.39 121.6C164.363 121.6 156.523 118.507 150.87 112.32C145.323 106.027 142.55 97.0667 142.55 85.44V39.68H163.19V82.24C163.19 90.0267 164.577 95.5733 167.35 98.88C170.123 102.08 174.763 103.68 181.27 103.68ZM235.444 120V102.08H257.844V19.2L239.764 20.32V2.4L265.684 1.12C269.844 0.906658 272.99 1.86666 275.124 4C277.364 6.13333 278.484 9.33333 278.484 13.6V102.08H300.724V120H235.444ZM333.006 103.68L361.966 102.08V120L324.846 121.6C320.793 121.707 317.7 120.693 315.566 118.56C313.433 116.427 312.366 113.28 312.366 109.12V57.6H293.806V39.68H312.366V22.4L333.006 16V39.68H358.766V57.6H333.006V103.68ZM408.774 26.72C406.32 28.8533 403.014 29.92 398.854 29.92C394.694 29.92 391.387 28.8533 388.934 26.72C386.48 24.48 385.254 21.4933 385.254 17.76C385.254 14.0267 386.48 11.0933 388.934 8.96C391.387 6.72 394.694 5.59999 398.854 5.59999C402.907 5.59999 406.214 6.72 408.774 8.96C411.334 11.2 412.614 14.1333 412.614 17.76C412.614 21.4933 411.334 24.48 408.774 26.72ZM368.294 120V102.08H391.014V56.48L372.614 57.6V39.68L398.214 38.08C402.267 37.8667 405.36 38.8267 407.494 40.96C409.627 43.0933 410.694 46.1333 410.694 50.08V102.08H433.414V120H368.294Z" fill="#252525"/>
<path d="M534.104 7.19999V25.12H496.504V120H475.864V25.12H437.944V7.19999H534.104ZM514.856 78.88C514.856 66.2933 518.643 56.3733 526.216 49.12C533.79 41.76 543.656 38.08 555.816 38.08C567.976 38.08 577.736 41.6 585.096 48.64C592.563 55.68 596.296 65.2267 596.296 77.28V84H534.376C534.59 90.2933 536.616 95.36 540.456 99.2C544.403 102.933 550.323 104.8 558.216 104.8C569.63 104.8 576.403 100.48 578.536 91.84H599.176C597.79 99.2 593.63 106.027 586.696 112.32C579.763 118.507 570.27 121.6 558.216 121.6C544.03 121.6 533.256 117.547 525.896 109.44C518.536 101.333 514.856 91.1467 514.856 78.88ZM534.376 71.52H576.776C576.776 66.72 575.016 62.7733 571.496 59.68C568.083 56.5867 562.856 55.04 555.816 55.04C548.776 55.04 543.443 56.64 539.816 59.84C536.19 62.9333 534.376 66.8267 534.376 71.52ZM604.856 79.84C604.856 67.2533 608.75 57.1733 616.536 49.6C624.323 41.92 634.67 38.08 647.576 38.08C658.243 38.08 667.523 41.0133 675.416 46.88C683.416 52.64 687.79 60.96 688.536 71.84H667.896C667.15 66.72 664.963 62.8267 661.336 60.16C657.71 57.3867 653.123 56 647.576 56C640.43 56 634.936 58.1867 631.096 62.56C627.363 66.8267 625.496 72.5867 625.496 79.84C625.496 87.0933 627.363 92.9067 631.096 97.28C634.936 101.547 640.43 103.68 647.576 103.68C653.123 103.68 657.71 102.347 661.336 99.68C664.963 96.9067 667.15 92.96 667.896 87.84H688.536C687.79 98.72 683.416 107.093 675.416 112.96C667.523 118.72 658.243 121.6 647.576 121.6C634.67 121.6 624.323 117.813 616.536 110.24C608.75 102.667 604.856 92.5333 604.856 79.84ZM749.606 38.08C759.526 38.08 767.26 41.2267 772.806 47.52C778.46 53.7067 781.286 62.6667 781.286 74.4V120H760.806V77.44C760.806 69.76 759.366 64.2667 756.486 60.96C753.713 57.6533 749.126 56 742.726 56C734.833 56 728.646 58.6667 724.166 64C719.686 69.2267 717.446 77.2267 717.446 88V120H696.806V2.4H717.446V51.04L713.766 63.36H719.046C720.753 55.7867 724.166 49.7067 729.286 45.12C734.513 40.4267 741.286 38.08 749.606 38.08Z" fill="#5364FF"/>
</svg>
