<svg width="365" height="516" viewBox="0 0 365 516" fill="none" xmlns="http://www.w3.org/2000/svg">
<rect y="285" width="51" height="156" rx="4" fill="#EBEEF2"/>
<rect x="63" y="223" width="52" height="218" rx="4" fill="#EBEEF2"/>
<rect x="127" y="166" width="51" height="275" rx="4" fill="#EBEEF2"/>
<rect x="190" y="285" width="52" height="156" rx="4" fill="#EBEEF2"/>
<g filter="url(#filter0_d_2101_59)">
<rect x="254" y="83" width="51" height="358" rx="4" fill="#5364FF"/>
</g>
<rect x="200" width="160" height="49" rx="8" fill="#5364FF"/>
<path d="M218.984 30.5V16.5H222.864V21.74H227.844V16.5H231.724V30.5H227.844V25.18H222.864V30.5H218.984ZM237.079 30.74C236.012 30.74 235.139 30.4467 234.459 29.86C233.779 29.26 233.439 28.4267 233.439 27.36C233.439 26.2667 233.819 25.4267 234.579 24.84C235.339 24.2533 236.372 23.96 237.679 23.96C238.626 23.96 239.492 24.1 240.279 24.38V24.2C240.279 23.0267 239.559 22.44 238.119 22.44C237.146 22.44 236.152 22.64 235.139 23.04L234.359 20.36C235.719 19.8 237.179 19.52 238.739 19.52C240.606 19.52 241.979 19.96 242.859 20.84C243.632 21.6 244.019 22.7467 244.019 24.28V30.5H240.259V29.38C239.446 30.2867 238.386 30.74 237.079 30.74ZM238.439 28.36C238.999 28.36 239.452 28.2 239.799 27.88C240.146 27.5467 240.319 27.1133 240.319 26.58V26.08C239.879 25.8933 239.386 25.8 238.839 25.8C238.292 25.8 237.866 25.9267 237.559 26.18C237.252 26.42 237.099 26.7533 237.099 27.18C237.099 27.54 237.219 27.8267 237.459 28.04C237.712 28.2533 238.039 28.36 238.439 28.36ZM245.952 30.5V19.68H249.752V27.44H252.412V19.68H256.212V27.44H258.872V19.68H262.672V30.5H245.952ZM270.268 30.5V19.68H274.068V23.7L277.008 19.68H281.308L277.608 24.12L281.408 30.5H277.228L275.168 27.04L274.068 28.36V30.5H270.268ZM284.499 30.48C284.125 30.5867 283.685 30.64 283.179 30.64C282.672 30.64 282.112 30.5867 281.499 30.48L281.659 27.54C281.939 27.58 282.145 27.6 282.279 27.6C282.452 27.6 282.592 27.58 282.699 27.54C282.805 27.4867 282.925 27.3533 283.059 27.14C283.205 26.9267 283.319 26.62 283.399 26.22C283.479 25.82 283.545 25.2467 283.599 24.5C283.665 23.74 283.699 22.8267 283.699 21.76V19.68H293.039V30.5H289.239V22.7H287.239V22.98C287.239 24.26 287.165 25.3667 287.019 26.3C286.885 27.22 286.705 27.96 286.479 28.52C286.252 29.0667 285.959 29.5067 285.599 29.84C285.239 30.16 284.872 30.3733 284.499 30.48ZM295.073 30.5V19.68H298.753V25.1L302.353 19.68H305.853V30.5H302.173V25.08L298.573 30.5H295.073ZM313.245 30.76C311.539 30.76 310.145 30.24 309.065 29.2C307.985 28.16 307.445 26.7933 307.445 25.1C307.445 23.5 307.959 22.16 308.985 21.08C310.012 19.9867 311.319 19.44 312.905 19.44C314.679 19.44 316.032 20 316.965 21.12C317.899 22.24 318.365 23.6533 318.365 25.36C318.365 25.7067 318.359 25.9667 318.345 26.14H311.105C311.412 27.3267 312.192 27.92 313.445 27.92C314.299 27.92 315.099 27.5533 315.845 26.82L317.945 28.56C316.785 30.0267 315.219 30.76 313.245 30.76ZM311.045 24.2H314.805C314.739 23.6 314.539 23.1267 314.205 22.78C313.872 22.42 313.445 22.24 312.925 22.24C312.432 22.24 312.019 22.42 311.685 22.78C311.365 23.1267 311.152 23.6 311.045 24.2ZM319.995 30.5V19.68H323.795V23.52H326.915V19.68H330.715V30.5H326.915V26.58H323.795V30.5H319.995ZM335.089 30.5V22.74H331.929V19.68H342.049V22.74H338.889V30.5H335.089Z" fill="white"/>
<path fill-rule="evenodd" clip-rule="evenodd" d="M289 49L270 49L275.702 57.0004C277.602 59.6665 281.398 59.6665 283.298 57.0004L289 49Z" fill="#5364FF"/>
<defs>
<filter id="filter0_d_2101_59" x="194" y="38" width="171" height="478" filterUnits="userSpaceOnUse" color-interpolation-filters="sRGB">
<feFlood flood-opacity="0" result="BackgroundImageFix"/>
<feColorMatrix in="SourceAlpha" type="matrix" values="0 0 0 0 0 0 0 0 0 0 0 0 0 0 0 0 0 0 127 0" result="hardAlpha"/>
<feOffset dy="15"/>
<feGaussianBlur stdDeviation="30"/>
<feComposite in2="hardAlpha" operator="out"/>
<feColorMatrix type="matrix" values="0 0 0 0 0.32549 0 0 0 0 0.392157 0 0 0 0 1 0 0 0 0.4 0"/>
<feBlend mode="normal" in2="BackgroundImageFix" result="effect1_dropShadow_2101_59"/>
<feBlend mode="normal" in="SourceGraphic" in2="effect1_dropShadow_2101_59" result="shape"/>
</filter>
</defs>
</svg>
