<svg width="180" height="242" viewBox="0 0 180 242" fill="none" xmlns="http://www.w3.org/2000/svg">
<rect width="180" height="242" rx="4" fill="#EBEEF2"/>
<rect x="12" y="16" width="53" height="210" rx="4" fill="#BBC3CE"/>
<path d="M20.3545 117.287L18.0254 118.122L20.3545 118.951V119.681L17.2578 118.465V117.773L20.3545 116.555V117.287ZM22.9326 117.185V115.441H23.7881V120H22.9326V119.514C22.8408 119.703 22.7217 119.846 22.5752 119.941C22.4307 120.037 22.2598 120.085 22.0625 120.085C21.6875 120.085 21.3965 119.935 21.1895 119.634C20.9824 119.333 20.8789 118.909 20.8789 118.362C20.8789 117.808 20.9834 117.382 21.1924 117.085C21.4033 116.788 21.7031 116.64 22.0918 116.64C22.2676 116.64 22.4248 116.686 22.5635 116.777C22.7041 116.867 22.8271 117.003 22.9326 117.185ZM21.7373 118.368C21.7373 118.685 21.79 118.933 21.8955 119.112C22.001 119.292 22.1465 119.382 22.332 119.382C22.5176 119.382 22.6641 119.292 22.7715 119.112C22.8789 118.933 22.9326 118.685 22.9326 118.368C22.9326 118.052 22.8789 117.804 22.7715 117.624C22.6641 117.444 22.5176 117.354 22.332 117.354C22.1465 117.354 22.001 117.444 21.8955 117.624C21.79 117.804 21.7373 118.052 21.7373 118.368ZM24.8779 116.719H26.5771V119.341H27.6436V120H24.6494V119.341H25.7188V117.378H24.8779V116.719ZM25.7188 115.122H26.5771V116.124H25.7188V115.122ZM31.2236 116.719L30.1807 120H29.123L28.0801 116.719H28.9502L29.6504 119.279L30.3535 116.719H31.2236ZM38.1846 119.833C38.04 119.917 37.8848 119.979 37.7188 120.021C37.5527 120.063 37.374 120.085 37.1826 120.085C36.6768 120.085 36.2812 119.933 35.9961 119.628C35.7109 119.323 35.5684 118.901 35.5684 118.362C35.5684 117.821 35.7119 117.398 35.999 117.094C36.2861 116.787 36.6826 116.634 37.1885 116.634C37.3643 116.634 37.5332 116.654 37.6953 116.695C37.8594 116.736 38.0225 116.8 38.1846 116.886V117.671C38.0596 117.563 37.9219 117.481 37.7715 117.425C37.623 117.366 37.4688 117.337 37.3086 117.337C37.0293 117.337 36.8145 117.426 36.6641 117.604C36.5137 117.781 36.4385 118.034 36.4385 118.362C36.4385 118.69 36.5137 118.942 36.6641 119.118C36.8145 119.294 37.0293 119.382 37.3086 119.382C37.4746 119.382 37.6299 119.354 37.7744 119.3C37.9189 119.243 38.0557 119.158 38.1846 119.045V119.833ZM39.8252 118.632V116.101H38.9551V115.441H40.6836V118.632C40.6836 118.89 40.7236 119.072 40.8037 119.18C40.8838 119.287 41.0195 119.341 41.2109 119.341H41.8965V120H40.9707C40.5625 120 40.2695 119.895 40.0918 119.684C39.9141 119.473 39.8252 119.122 39.8252 118.632ZM44.3574 118.459C44.0371 118.459 43.8135 118.5 43.6865 118.582C43.5596 118.664 43.4961 118.805 43.4961 119.004C43.4961 119.152 43.54 119.271 43.6279 119.358C43.7158 119.446 43.835 119.49 43.9854 119.49C44.2119 119.49 44.3877 119.405 44.5127 119.235C44.6377 119.063 44.7002 118.824 44.7002 118.518V118.459H44.3574ZM45.5527 118.128V120H44.7002V119.634C44.5967 119.778 44.4639 119.89 44.3018 119.968C44.1396 120.046 43.9609 120.085 43.7656 120.085C43.3926 120.085 43.1016 119.986 42.8926 119.789C42.6855 119.592 42.582 119.316 42.582 118.963C42.582 118.58 42.7061 118.298 42.9541 118.116C43.2021 117.933 43.5859 117.841 44.1055 117.841H44.7002V117.697C44.7002 117.559 44.6494 117.454 44.5479 117.384C44.4482 117.312 44.3008 117.275 44.1055 117.275C43.9004 117.275 43.7012 117.302 43.5078 117.354C43.3164 117.405 43.1162 117.487 42.9072 117.601V116.868C43.0967 116.79 43.2891 116.732 43.4844 116.695C43.6797 116.658 43.8867 116.64 44.1055 116.64C44.6387 116.64 45.0127 116.748 45.2275 116.965C45.4443 117.182 45.5527 117.569 45.5527 118.128ZM48.8252 116.821V117.571C48.667 117.47 48.502 117.394 48.3301 117.343C48.1602 117.29 47.9893 117.264 47.8174 117.264C47.626 117.264 47.4814 117.292 47.3838 117.349C47.2861 117.403 47.2373 117.485 47.2373 117.595C47.2373 117.751 47.4463 117.878 47.8643 117.976L47.8965 117.984L48.1426 118.043C48.4551 118.117 48.6836 118.237 48.8281 118.403C48.9746 118.567 49.0479 118.79 49.0479 119.071C49.0479 119.409 48.9365 119.663 48.7139 119.833C48.4932 120.001 48.1602 120.085 47.7148 120.085C47.5176 120.085 47.3154 120.067 47.1084 120.032C46.9014 119.999 46.6914 119.948 46.4785 119.88V119.13C46.668 119.237 46.8604 119.319 47.0557 119.376C47.2529 119.433 47.4434 119.461 47.627 119.461C47.8281 119.461 47.9805 119.432 48.084 119.373C48.1875 119.314 48.2393 119.229 48.2393 119.118C48.2393 119.009 48.2021 118.925 48.1279 118.866C48.0557 118.808 47.8818 118.745 47.6064 118.679L47.3691 118.626C47.041 118.552 46.8018 118.436 46.6514 118.277C46.501 118.119 46.4258 117.907 46.4258 117.642C46.4258 117.325 46.54 117.079 46.7686 116.903C46.9971 116.728 47.3184 116.64 47.7324 116.64C47.918 116.64 48.1025 116.655 48.2861 116.687C48.4717 116.716 48.6514 116.761 48.8252 116.821ZM52.4404 116.821V117.571C52.2822 117.47 52.1172 117.394 51.9453 117.343C51.7754 117.29 51.6045 117.264 51.4326 117.264C51.2412 117.264 51.0967 117.292 50.999 117.349C50.9014 117.403 50.8525 117.485 50.8525 117.595C50.8525 117.751 51.0615 117.878 51.4795 117.976L51.5117 117.984L51.7578 118.043C52.0703 118.117 52.2988 118.237 52.4434 118.403C52.5898 118.567 52.6631 118.79 52.6631 119.071C52.6631 119.409 52.5518 119.663 52.3291 119.833C52.1084 120.001 51.7754 120.085 51.3301 120.085C51.1328 120.085 50.9307 120.067 50.7236 120.032C50.5166 119.999 50.3066 119.948 50.0938 119.88V119.13C50.2832 119.237 50.4756 119.319 50.6709 119.376C50.8682 119.433 51.0586 119.461 51.2422 119.461C51.4434 119.461 51.5957 119.432 51.6992 119.373C51.8027 119.314 51.8545 119.229 51.8545 119.118C51.8545 119.009 51.8174 118.925 51.7432 118.866C51.6709 118.808 51.4971 118.745 51.2217 118.679L50.9844 118.626C50.6562 118.552 50.417 118.436 50.2666 118.277C50.1162 118.119 50.041 117.907 50.041 117.642C50.041 117.325 50.1553 117.079 50.3838 116.903C50.6123 116.728 50.9336 116.64 51.3477 116.64C51.5332 116.64 51.7178 116.655 51.9014 116.687C52.0869 116.716 52.2666 116.761 52.4404 116.821ZM53.4102 118.441H56.5068V119.136H53.4102V118.441ZM53.4102 117.108H56.5068V117.797H53.4102V117.108ZM19.9268 122.626V124.252H19.1768V122.626H19.9268ZM18.4268 122.626V124.252H17.6768V122.626H18.4268ZM21.9307 125.925H22.9062V127H21.9307V125.925ZM25.5459 125.925H26.5215V127H25.5459V125.925ZM29.1611 125.925H30.1367V127H29.1611V125.925ZM34.3877 122.626V124.252H33.6377V122.626H34.3877ZM32.8877 122.626V124.252H32.1377V122.626H32.8877ZM35.334 124.287V123.555L38.4307 124.773V125.465L35.334 126.681V125.951L37.6631 125.122L35.334 124.287Z" fill="black"/>
<rect x="80" y="16" width="88" height="210" rx="4" fill="#BBC3CE"/>
</svg>
