<svg width="809" height="122" viewBox="0 0 809 122" fill="none" xmlns="http://www.w3.org/2000/svg">
<path d="M0.400001 120V7.19999H41.2L63.92 114.72H69.2L91.92 7.19999H132.72V120H112.08V25.92L115.92 12.48H110.48L86.8 120H46.48L22.64 12.48H17.36L21.04 25.92V120H0.400001ZM181.27 103.68C189.057 103.68 195.19 101.067 199.67 95.84C204.257 90.5067 206.55 82.5067 206.55 71.84V39.68H227.03V120H206.55V108.64L210.23 96.32H204.95C203.243 103.893 199.777 110.027 194.55 114.72C189.43 119.307 182.71 121.6 174.39 121.6C164.363 121.6 156.523 118.507 150.87 112.32C145.323 106.027 142.55 97.0667 142.55 85.44V39.68H163.19V82.24C163.19 90.0267 164.577 95.5733 167.35 98.88C170.123 102.08 174.763 103.68 181.27 103.68ZM235.444 120V102.08H257.844V19.2L239.764 20.32V2.4L265.684 1.12C269.844 0.906658 272.99 1.86666 275.124 4C277.364 6.13333 278.484 9.33333 278.484 13.6V102.08H300.724V120H235.444ZM333.006 103.68L361.966 102.08V120L324.846 121.6C320.793 121.707 317.7 120.693 315.566 118.56C313.433 116.427 312.366 113.28 312.366 109.12V57.6H293.806V39.68H312.366V22.4L333.006 16V39.68H358.766V57.6H333.006V103.68ZM408.774 26.72C406.32 28.8533 403.014 29.92 398.854 29.92C394.694 29.92 391.387 28.8533 388.934 26.72C386.48 24.48 385.254 21.4933 385.254 17.76C385.254 14.0267 386.48 11.0933 388.934 8.96C391.387 6.72 394.694 5.59999 398.854 5.59999C402.907 5.59999 406.214 6.72 408.774 8.96C411.334 11.2 412.614 14.1333 412.614 17.76C412.614 21.4933 411.334 24.48 408.774 26.72ZM368.294 120V102.08H391.014V56.48L372.614 57.6V39.68L398.214 38.08C402.267 37.8667 405.36 38.8267 407.494 40.96C409.627 43.0933 410.694 46.1333 410.694 50.08V102.08H433.414V120H368.294ZM534.104 7.19999V25.12H496.504V120H475.864V25.12H437.944V7.19999H534.104ZM542.044 78.88C542.044 66.2933 545.83 56.3733 553.404 49.12C560.977 41.76 570.844 38.08 583.004 38.08C595.164 38.08 604.924 41.6 612.284 48.64C619.75 55.68 623.484 65.2267 623.484 77.28V84H561.564C561.777 90.2933 563.804 95.36 567.644 99.2C571.59 102.933 577.51 104.8 585.404 104.8C596.817 104.8 603.59 100.48 605.724 91.84H626.364C624.977 99.2 620.817 106.027 613.884 112.32C606.95 118.507 597.457 121.6 585.404 121.6C571.217 121.6 560.444 117.547 553.084 109.44C545.724 101.333 542.044 91.1467 542.044 78.88ZM561.564 71.52H603.964C603.964 66.72 602.204 62.7733 598.684 59.68C595.27 56.5867 590.044 55.04 583.004 55.04C575.964 55.04 570.63 56.64 567.004 59.84C563.377 62.9333 561.564 66.8267 561.564 71.52ZM632.044 79.84C632.044 67.2533 635.937 57.1733 643.724 49.6C651.51 41.92 661.857 38.08 674.764 38.08C685.43 38.08 694.71 41.0133 702.604 46.88C710.604 52.64 714.977 60.96 715.724 71.84H695.084C694.337 66.72 692.15 62.8267 688.524 60.16C684.897 57.3867 680.31 56 674.764 56C667.617 56 662.124 58.1867 658.284 62.56C654.55 66.8267 652.684 72.5867 652.684 79.84C652.684 87.0933 654.55 92.9067 658.284 97.28C662.124 101.547 667.617 103.68 674.764 103.68C680.31 103.68 684.897 102.347 688.524 99.68C692.15 96.9067 694.337 92.96 695.084 87.84H715.724C714.977 98.72 710.604 107.093 702.604 112.96C694.71 118.72 685.43 121.6 674.764 121.6C661.857 121.6 651.51 117.813 643.724 110.24C635.937 102.667 632.044 92.5333 632.044 79.84ZM776.794 38.08C786.714 38.08 794.447 41.2267 799.994 47.52C805.647 53.7067 808.474 62.6667 808.474 74.4V120H787.994V77.44C787.994 69.76 786.554 64.2667 783.674 60.96C780.9 57.6533 776.314 56 769.914 56C762.02 56 755.834 58.6667 751.354 64C746.874 69.2267 744.634 77.2267 744.634 88V120H723.994V2.4H744.634V51.04L740.954 63.36H746.234C747.94 55.7867 751.354 49.7067 756.474 45.12C761.7 40.4267 768.474 38.08 776.794 38.08Z" fill="white"/>
</svg>
