<svg width="152" height="25" viewBox="0 0 152 25" fill="none" xmlns="http://www.w3.org/2000/svg">
<path d="M0.432 24V7.104H4.304V9.664C5.712 7.72267 7.42933 6.752 9.456 6.752C11.8027 6.752 13.4773 7.744 14.48 9.728C15.9947 7.744 17.904 6.752 20.208 6.752C22.064 6.752 23.5147 7.31733 24.56 8.448C25.6053 9.57867 26.128 11.168 26.128 13.216V24H22.256V14.4C22.256 13.056 21.9573 12.032 21.36 11.328C20.7627 10.624 19.92 10.272 18.832 10.272C17.744 10.272 16.8693 10.6453 16.208 11.392C15.5467 12.1173 15.216 13.1413 15.216 14.464V24H11.344V14.368C11.344 13.0667 11.0453 12.064 10.448 11.36C9.85067 10.6347 9.008 10.272 7.92 10.272C6.832 10.272 5.95733 10.656 5.296 11.424C4.63467 12.1707 4.304 13.1947 4.304 14.496V24H0.432ZM36.6623 24.352C34.7849 24.352 33.3129 23.7653 32.2463 22.592C31.1796 21.4187 30.6463 19.84 30.6463 17.856V7.104H34.5183V16.704C34.5183 18.0267 34.8276 19.0507 35.4463 19.776C36.0863 20.48 36.9823 20.832 38.1343 20.832C39.2649 20.832 40.1823 20.4587 40.8863 19.712C41.5903 18.9653 41.9423 17.9413 41.9423 16.64V7.104H45.8143V24H41.9423V21.376C40.5983 23.36 38.8383 24.352 36.6623 24.352ZM50.906 24V0.639999H54.778V24H50.906ZM65.5023 24.288C62.2596 24.288 60.6383 22.6347 60.6383 19.328V10.432H58.4943V7.104H60.6383V2.464H64.5103V7.104H69.0543V10.432H64.5103V18.72C64.5103 20.128 65.2036 20.832 66.5903 20.832C67.4223 20.832 68.2223 20.64 68.9903 20.256V23.424C67.9663 24 66.8036 24.288 65.5023 24.288ZM73.0273 4.512V0.831999H77.1873V4.512H73.0273ZM73.1873 24V7.104H77.0593V24H73.1873Z" fill="#252525"/>
<path d="M88.0715 24V5.248H80.9675V1.6H99.1435V5.248H92.0395V24H88.0715ZM106.957 24.384C104.483 24.384 102.413 23.5627 100.749 21.92C99.1066 20.2773 98.2853 18.1547 98.2853 15.552C98.2853 13.0987 99.0639 11.0187 100.621 9.312C102.179 7.60533 104.152 6.752 106.541 6.752C109.101 6.752 111.085 7.62667 112.493 9.376C113.923 11.104 114.637 13.2587 114.637 15.84C114.637 16.3093 114.616 16.672 114.573 16.928H102.157C102.371 18.272 102.915 19.328 103.789 20.096C104.664 20.8427 105.741 21.216 107.021 21.216C108.685 21.216 110.211 20.544 111.597 19.2L113.869 21.216C112.12 23.328 109.816 24.384 106.957 24.384ZM102.125 14.368H110.797C110.669 13.0667 110.232 12 109.485 11.168C108.739 10.336 107.747 9.92 106.509 9.92C105.336 9.92 104.355 10.336 103.565 11.168C102.776 11.9787 102.296 13.0453 102.125 14.368ZM126.334 24.384C123.838 24.384 121.758 23.5307 120.094 21.824C118.43 20.1173 117.598 18.0373 117.598 15.584C117.598 13.152 118.43 11.072 120.094 9.344C121.779 7.616 123.87 6.752 126.366 6.752C129.096 6.752 131.347 7.72267 133.118 9.664L130.718 12.256C129.374 10.848 127.912 10.144 126.334 10.144C124.947 10.144 123.784 10.6773 122.846 11.744C121.928 12.7893 121.47 14.0693 121.47 15.584C121.47 17.12 121.939 18.4107 122.878 19.456C123.838 20.5013 125.054 21.024 126.526 21.024C128.083 21.024 129.544 20.32 130.91 18.912L133.246 21.216C132.328 22.24 131.326 23.0293 130.238 23.584C129.171 24.1173 127.87 24.384 126.334 24.384ZM136.807 24V0.639999H140.679V9.728C142.023 7.744 143.783 6.752 145.959 6.752C147.836 6.752 149.308 7.33867 150.375 8.512C151.442 9.68533 151.975 11.264 151.975 13.248V24H148.103V14.4C148.103 13.0773 147.783 12.064 147.143 11.36C146.524 10.6347 145.639 10.272 144.487 10.272C143.356 10.272 142.439 10.6453 141.735 11.392C141.031 12.1387 140.679 13.1627 140.679 14.464V24H136.807Z" fill="#5364FF"/>
</svg>
