<svg width="1089" height="538" viewBox="0 0 1089 538" fill="none" xmlns="http://www.w3.org/2000/svg">
<g clip-path="url(#clip0_296_63)">
<path d="M841.835 -27.1383C841.835 -27.1383 672.37 -124.241 642.879 -110.217C613.321 -96.1189 950.784 228.844 885.349 251.356C819.914 273.868 616.622 -43.968 533.628 13.8329C445.746 74.9259 636.892 173.107 630.757 267.816" stroke="white" stroke-width="21" stroke-miterlimit="10" stroke-linecap="round" stroke-linejoin="round"/>
<path d="M828.838 -38.5565C804.828 -60.3165 737.43 -95.5689 685.609 -74.008C613.424 -44.1155 674.343 22.4499 689.325 38.2747C737.38 88.8785 900.958 151.925 866.977 199.542C834.497 245.149 726.563 158.31 703.121 134.388C681.125 112.002 642.277 53.6458 597.527 91.4014C555.594 126.707 624.473 159.667 639.7 184.759C654.927 209.85 667.041 239.394 660.38 267.885" stroke="#49C656" stroke-width="21" stroke-miterlimit="10" stroke-linecap="round" stroke-linejoin="round"/>
<path d="M648.292 295.734C647.851 295.479 648.417 294.38 649.341 293.328C653.907 287.222 657.129 280.07 657.906 272.367C657.956 270.947 658.295 270.712 658.794 270.751C659.292 270.789 659.668 271.119 659.618 272.54C658.793 280.6 655.514 287.969 650.75 294.3C649.826 295.351 648.659 295.923 648.292 295.734Z" fill="#E8B71C"/>
<g opacity="0.15">
<path opacity="0.15" d="M648.292 295.734C648.734 295.989 649.826 295.351 650.816 294.225C655.58 287.894 658.859 280.525 659.684 272.465C659.714 271.825 659.62 271.477 659.461 271.204C659.244 271.147 659.254 271.288 659.29 271.852C659.765 279.191 656.251 286.221 652.223 291.866C650.147 294.835 648.631 295.5 648.247 295.028C648.124 295.32 648.142 295.602 648.292 295.734Z" fill="#B7190D"/>
</g>
<g opacity="0.15">
<path opacity="0.15" d="M659.376 270.996C659.461 271.204 659.488 271.627 659.44 271.984C658.756 280.036 655.552 287.47 650.855 293.726C649.865 294.853 648.772 295.49 648.331 295.236C648.256 295.17 648.171 294.962 648.228 294.746C647.973 295.188 647.992 295.47 648.217 295.668C648.659 295.923 649.751 295.285 650.741 294.159C655.505 287.828 658.784 280.459 659.609 272.399C659.704 271.684 659.536 271.27 659.376 270.996Z" fill="#B7190D"/>
</g>
<g opacity="0.15">
<path opacity="0.15" d="M657.929 274.916C658.309 273.12 658.976 273.573 657.989 278.03C656.735 283.851 649.321 294.109 649.321 294.109C649.321 294.109 656.599 281.734 657.929 274.916Z" fill="#FFFEE6"/>
</g>
<path opacity="0.15" d="M657.804 276.271C657.843 275.772 658.116 275.613 658.087 276.252C658.057 276.892 656.41 282.1 656.041 282.975C655.133 285.372 653.272 289.46 652.848 289.487C652.425 289.515 654.039 287.072 654.662 285.756C655.286 284.441 655.795 283.557 656.382 281.677C656.979 279.938 657.652 277.202 657.804 276.271Z" fill="#FFFEE6"/>
<path d="M651.003 294.921C650.561 294.666 651.062 293.642 651.911 292.524C656.082 285.806 658.381 279.706 659.497 271.768C659.481 270.423 659.82 270.188 660.319 270.227C660.817 270.266 661.259 270.521 661.209 271.941C660.582 279.776 657.726 287.117 653.386 293.421C652.537 294.538 651.445 295.176 651.003 294.921Z" fill="#E8B71C"/>
<g opacity="0.15">
<path opacity="0.15" d="M651.003 294.921C651.445 295.176 652.537 294.539 653.452 293.346C657.792 287.042 660.648 279.701 661.275 271.866C661.238 271.301 661.211 270.878 661.052 270.605C660.835 270.548 660.845 270.689 660.881 271.254C661.488 278.442 658.313 285.237 654.642 290.93C652.708 293.89 651.408 294.612 650.957 294.216C650.769 294.582 650.853 294.789 651.003 294.921Z" fill="#B7190D"/>
</g>
<g opacity="0.15">
<path opacity="0.15" d="M660.901 270.473C660.986 270.68 661.079 271.028 660.965 271.461C660.479 279.286 657.69 286.553 653.425 292.922C652.576 294.04 651.417 294.753 651.051 294.564C650.976 294.498 650.891 294.291 650.948 294.074C650.835 294.507 650.787 294.864 650.937 294.996C651.379 295.251 652.471 294.614 653.386 293.421C657.726 287.117 660.582 279.776 661.209 271.941C661.229 271.16 661.127 270.671 660.901 270.473Z" fill="#B7190D"/>
</g>
<g opacity="0.15">
<path opacity="0.15" d="M659.586 274.242C659.9 272.522 660.633 272.899 659.778 277.206C658.657 282.876 651.957 293.23 651.957 293.23C651.966 293.371 658.463 280.976 659.586 274.242Z" fill="#FFFEE6"/>
</g>
<path opacity="0.15" d="M659.536 275.663C659.575 275.164 659.782 275.08 659.819 275.645C659.789 276.284 658.349 281.408 658.121 282.273C657.355 284.661 655.7 288.665 655.277 288.693C654.854 288.72 656.326 286.287 656.95 284.971C657.573 283.655 658.008 282.706 658.463 280.976C658.843 279.18 659.309 276.528 659.536 275.663Z" fill="#FFFEE6"/>
<path d="M652.478 295.818C652.037 295.563 652.603 294.463 653.518 293.27C657.849 286.826 660.837 279.334 661.314 271.367C661.297 270.022 661.703 269.712 662.126 269.685C662.624 269.724 663.066 269.978 663.091 271.465C662.576 279.93 659.429 287.149 655.059 294.092C654.003 295.294 652.845 296.007 652.478 295.818Z" fill="#E8B71C"/>
<g opacity="0.15">
<path opacity="0.15" d="M652.478 295.818C652.92 296.073 654.078 295.36 654.918 294.101C659.212 287.092 662.435 279.94 662.95 271.474C662.98 270.834 662.886 270.486 662.727 270.213C662.511 270.156 662.52 270.297 662.556 270.862C663.445 278.032 660.061 285.974 656.249 291.677C654.117 294.862 652.817 295.583 652.433 295.112C652.31 295.404 652.328 295.686 652.478 295.818Z" fill="#B7190D"/>
</g>
<g opacity="0.15">
<path opacity="0.15" d="M662.643 270.006C662.727 270.213 662.754 270.636 662.782 271.06C662.407 279.516 659.326 286.659 655.032 293.669C654.117 294.861 653.034 295.64 652.592 295.385C652.517 295.319 652.433 295.112 652.489 294.896C652.31 295.403 652.328 295.686 652.478 295.818C652.92 296.073 654.078 295.36 654.918 294.101C659.212 287.092 662.435 279.939 662.95 271.474C662.971 270.693 662.802 270.279 662.643 270.006Z" fill="#B7190D"/>
</g>
<g opacity="0.15">
<path opacity="0.15" d="M661.346 274.058C661.65 272.196 662.318 272.649 661.546 277.163C660.518 283.181 653.498 294.051 653.498 294.051C653.498 294.051 660.24 281.073 661.346 274.058Z" fill="#FFFEE6"/>
</g>
<path opacity="0.15" d="M661.296 275.478C661.335 274.98 661.608 274.82 661.578 275.46C661.549 276.1 660.127 281.506 659.833 282.446C659.076 284.975 657.364 289.195 656.866 289.157C656.443 289.184 657.981 286.676 658.595 285.219C659.21 283.762 659.644 282.812 660.165 281.007C660.611 279.136 661.144 276.409 661.296 275.478Z" fill="#FFFEE6"/>
<path d="M655.386 285.993C654.953 285.879 654.899 285.033 655.276 284.3C656.894 279.731 657.654 276.139 658.115 271.22C658.136 270.439 658.475 270.204 658.907 270.318C659.406 270.357 659.772 270.546 659.752 271.327C659.15 276.255 658.267 280.138 656.799 284.839C656.497 285.638 655.818 286.107 655.386 285.993Z" fill="#E8B71C"/>
<g opacity="0.15">
<path opacity="0.15" d="M655.386 285.993C655.818 286.107 656.497 285.638 656.799 284.839C658.342 280.204 659.15 276.255 659.752 271.327C659.8 270.969 659.716 270.762 659.565 270.63C659.424 270.639 659.358 270.714 659.376 270.997C659.998 275.137 658.438 279.489 656.981 283.268C656.187 285.233 655.518 285.843 654.926 285.456C655.085 285.729 655.17 285.936 655.386 285.993Z" fill="#B7190D"/>
</g>
<g opacity="0.15">
<path opacity="0.15" d="M659.415 270.498C659.424 270.639 659.508 270.846 659.527 271.129C658.99 275.982 658.183 279.931 656.64 284.566C656.337 285.365 655.659 285.834 655.226 285.72C655.085 285.729 655.001 285.522 654.926 285.456C654.944 285.738 655.104 286.011 655.32 286.068C655.752 286.182 656.431 285.713 656.733 284.914C658.276 280.279 659.083 276.33 659.686 271.402C659.725 270.903 659.64 270.696 659.415 270.498Z" fill="#B7190D"/>
</g>
<g opacity="0.15">
<path opacity="0.15" d="M658.291 272.838C658.434 271.766 658.942 271.946 658.692 274.654C658.442 277.363 655.547 285.203 655.529 284.921C655.151 281.261 657.69 276.703 658.291 272.838Z" fill="#FFFEE6"/>
</g>
<path opacity="0.15" d="M658.27 273.619C658.252 273.337 658.459 273.252 658.487 273.676C658.439 274.033 657.868 277.259 657.754 277.691C657.497 279.196 657.097 281.773 656.74 281.725C656.382 281.677 656.997 280.22 657.224 279.355C657.452 278.49 657.631 277.983 657.841 276.835C658.059 275.829 658.232 274.117 658.27 273.619Z" fill="#FFFEE6"/>
<path d="M654.983 289.633C654.617 289.444 654.703 288.588 655.204 287.564C657.698 282.301 659.562 277.149 659.593 271.053C659.595 269.99 660.009 269.822 660.366 269.87C660.865 269.908 661.231 270.097 661.229 271.16C660.568 277.368 659.128 282.492 656.661 288.178C656.235 289.268 655.425 289.888 654.983 289.633Z" fill="#E8B71C"/>
<g opacity="0.15">
<path opacity="0.15" d="M654.984 289.633C655.35 289.822 656.16 289.202 656.736 288.244C659.203 282.558 660.568 277.368 661.304 271.226C661.277 270.803 661.259 270.52 661.099 270.247C660.958 270.256 660.892 270.332 660.92 270.755C661.615 276.024 659.703 281.533 657.389 286.289C656.133 288.779 655.323 289.398 654.806 289.077C654.758 289.435 654.842 289.642 654.984 289.633Z" fill="#B7190D"/>
</g>
<g opacity="0.15">
<path opacity="0.15" d="M660.958 270.257C661.043 270.464 661.061 270.746 661.079 271.028C660.484 277.16 659.119 282.351 656.718 287.962C656.142 288.92 655.332 289.539 654.965 289.351C654.89 289.285 654.74 289.153 654.731 289.011C654.683 289.369 654.701 289.651 654.993 289.774C655.359 289.963 656.169 289.344 656.745 288.385C659.212 282.699 660.577 277.509 661.314 271.367C661.202 270.737 661.109 270.389 660.958 270.257Z" fill="#B7190D"/>
</g>
<g opacity="0.15">
<path opacity="0.15" d="M659.73 273.17C659.855 271.816 660.588 272.194 660.092 275.485C659.453 279.849 655.466 288.326 655.466 288.326C655.466 288.326 659.07 278.315 659.73 273.17Z" fill="#FFFEE6"/>
</g>
<path opacity="0.15" d="M659.727 274.233C659.775 273.876 659.982 273.792 659.944 274.29C659.905 274.789 659.097 278.738 658.861 279.462C658.415 281.333 657.628 284.502 657.28 284.595C656.856 284.623 657.791 282.649 658.151 281.634C658.51 280.618 658.747 279.894 659.079 278.456C659.411 277.017 659.698 274.873 659.727 274.233Z" fill="#FFFEE6"/>
<path d="M658.668 286.348C658.236 286.234 658.181 285.387 658.484 284.588C659.942 279.746 660.741 275.656 661.202 270.737C661.147 269.89 661.561 269.721 661.985 269.694C662.483 269.733 662.85 269.922 662.905 270.768C662.612 276.102 661.804 280.051 660.073 285.052C659.704 285.926 659.035 286.537 658.668 286.348Z" fill="#E8B71C"/>
<g opacity="0.15">
<path opacity="0.15" d="M658.668 286.348C659.101 286.461 659.779 285.992 660.148 285.118C661.879 280.117 662.687 276.168 662.98 270.834C663.027 270.477 662.868 270.204 662.784 269.997C662.643 270.006 662.577 270.081 662.595 270.363C663.376 274.777 661.834 279.411 660.462 283.397C659.677 285.503 659.007 286.113 658.491 285.792C658.368 286.084 658.452 286.291 658.668 286.348Z" fill="#B7190D"/>
</g>
<g opacity="0.15">
<path opacity="0.15" d="M662.634 269.865C662.718 270.072 662.727 270.213 662.745 270.495C662.452 275.829 661.711 279.703 660.054 284.77C659.686 285.644 659.083 286.179 658.575 285.999C658.434 286.009 658.349 285.801 658.274 285.735C658.293 286.018 658.452 286.291 658.668 286.348C659.101 286.461 659.779 285.992 660.148 285.118C661.879 280.117 662.687 276.168 662.98 270.834C662.877 270.345 662.784 269.997 662.634 269.865Z" fill="#B7190D"/>
</g>
<g opacity="0.15">
<path opacity="0.15" d="M661.443 272.28C661.587 271.208 662.169 271.454 661.853 274.238C661.517 277.802 658.802 285.134 658.802 285.134C658.727 285.068 660.936 276.493 661.443 272.28Z" fill="#FFFEE6"/>
</g>
<path opacity="0.15" d="M661.432 273.202C661.414 272.92 661.621 272.835 661.648 273.259C661.676 273.682 661.039 276.983 661.009 277.622C660.828 279.193 660.436 281.911 660.013 281.938C659.59 281.966 660.261 280.293 660.488 279.428C660.716 278.563 660.887 277.914 661.096 276.767C661.296 275.478 661.469 273.766 661.432 273.202Z" fill="#FFFEE6"/>
<path d="M618.863 297.566C618.421 297.311 618.988 296.212 619.912 295.16C624.477 289.054 627.699 281.902 628.477 274.199C628.527 272.778 628.866 272.544 629.364 272.583C629.863 272.621 630.238 272.951 630.188 274.372C629.363 282.432 626.084 289.801 621.321 296.132C620.397 297.183 619.304 297.821 618.863 297.566Z" fill="#E8B71C"/>
<g opacity="0.15">
<path opacity="0.15" d="M618.863 297.566C619.304 297.821 620.397 297.183 621.387 296.056C626.15 289.725 629.429 282.357 630.254 274.296C630.284 273.657 630.191 273.309 630.031 273.035C629.815 272.979 629.824 273.12 629.861 273.684C630.335 281.023 626.821 288.052 622.793 293.698C620.718 296.667 619.202 297.331 618.817 296.86C618.694 297.152 618.712 297.434 618.863 297.566Z" fill="#B7190D"/>
</g>
<g opacity="0.15">
<path opacity="0.15" d="M629.947 272.828C630.031 273.035 630.059 273.459 630.011 273.816C629.327 281.867 626.123 289.302 621.425 295.558C620.435 296.685 619.343 297.322 618.901 297.067C618.826 297.001 618.742 296.794 618.799 296.578C618.544 297.02 618.562 297.302 618.787 297.5C619.229 297.755 620.322 297.117 621.312 295.99C626.075 289.659 629.354 282.291 630.179 274.23C630.275 273.516 630.106 273.101 629.947 272.828Z" fill="#B7190D"/>
</g>
<g opacity="0.15">
<path opacity="0.15" d="M628.5 276.748C628.88 274.952 629.547 275.405 628.559 279.862C627.306 285.683 619.891 295.94 619.891 295.94C619.891 295.94 627.244 283.632 628.5 276.748Z" fill="#FFFEE6"/>
</g>
<path opacity="0.15" d="M628.45 278.169C628.488 277.67 628.762 277.511 628.732 278.15C628.703 278.79 627.055 283.998 626.687 284.872C625.779 287.269 623.917 291.358 623.494 291.385C623.071 291.413 624.684 288.97 625.308 287.654C625.931 286.338 626.441 285.455 627.028 283.575C627.624 281.836 628.222 279.034 628.45 278.169Z" fill="#FFFEE6"/>
<path d="M621.649 296.819C621.207 296.564 621.708 295.54 622.557 294.422C626.728 287.704 629.026 281.603 630.143 273.666C630.127 272.321 630.466 272.086 630.964 272.125C631.463 272.163 631.904 272.418 631.855 273.839C631.227 281.674 628.372 289.015 624.032 295.319C623.108 296.37 622.09 297.074 621.649 296.819Z" fill="#E8B71C"/>
<g opacity="0.15">
<path opacity="0.15" d="M621.649 296.819C622.09 297.074 623.183 296.436 624.098 295.243C628.438 288.94 631.293 281.599 631.921 273.764C631.884 273.199 631.857 272.776 631.697 272.503C631.481 272.446 631.49 272.587 631.527 273.151C632.133 280.34 628.959 287.135 625.288 292.828C623.353 295.788 622.054 296.509 621.603 296.113C621.48 296.405 621.498 296.687 621.649 296.819Z" fill="#B7190D"/>
</g>
<g opacity="0.15">
<path opacity="0.15" d="M631.547 272.371C631.631 272.578 631.725 272.926 631.611 273.358C631.125 281.184 628.335 288.45 624.07 294.82C623.221 295.938 622.063 296.65 621.696 296.462C621.621 296.396 621.537 296.188 621.594 295.972C621.48 296.405 621.432 296.762 621.583 296.894C622.024 297.149 623.117 296.511 624.032 295.319C628.372 289.015 631.227 281.674 631.855 273.839C631.8 272.992 631.772 272.569 631.547 272.371Z" fill="#B7190D"/>
</g>
<g opacity="0.15">
<path opacity="0.15" d="M630.232 276.14C630.546 274.419 631.279 274.797 630.423 279.104C629.302 284.774 622.602 295.128 622.602 295.128C622.602 295.128 629.108 282.874 630.232 276.14Z" fill="#FFFEE6"/>
</g>
<path opacity="0.15" d="M630.107 277.495C630.145 276.996 630.353 276.912 630.389 277.476C630.36 278.116 628.919 283.24 628.692 284.105C627.925 286.493 626.271 290.497 625.847 290.524C625.424 290.552 626.896 288.118 627.52 286.803C628.144 285.487 628.578 284.538 629.033 282.808C629.488 281.078 629.954 278.426 630.107 277.495Z" fill="#FFFEE6"/>
<path d="M623.049 297.65C622.607 297.395 623.174 296.295 624.088 295.102C628.419 288.658 631.407 281.166 631.884 273.199C631.868 271.854 632.273 271.544 632.696 271.517C633.195 271.555 633.637 271.81 633.662 273.297C633.146 281.762 629.999 288.981 625.63 295.924C624.649 297.192 623.49 297.904 623.049 297.65Z" fill="#E8B71C"/>
<g opacity="0.15">
<path opacity="0.15" d="M623.049 297.65C623.49 297.904 624.649 297.192 625.489 295.933C629.783 288.924 633.005 281.771 633.521 273.306C633.55 272.666 633.457 272.318 633.297 272.045C633.081 271.988 633.09 272.129 633.127 272.694C634.015 279.864 630.632 287.806 626.82 293.509C624.687 296.693 623.388 297.415 623.003 296.944C622.955 297.301 622.898 297.518 623.049 297.65Z" fill="#B7190D"/>
</g>
<g opacity="0.15">
<path opacity="0.15" d="M633.213 271.838C633.297 272.045 633.325 272.468 633.352 272.892C632.978 281.348 629.897 288.491 625.602 295.5C624.687 296.693 623.604 297.472 623.162 297.217C623.087 297.151 623.003 296.944 623.06 296.728C622.88 297.235 622.898 297.518 623.049 297.65C623.49 297.904 624.649 297.192 625.489 295.933C629.783 288.924 633.005 281.771 633.521 273.306C633.541 272.525 633.439 272.036 633.213 271.838Z" fill="#B7190D"/>
</g>
<g opacity="0.15">
<path opacity="0.15" d="M631.916 275.89C632.221 274.028 632.888 274.48 632.117 278.994C631.089 285.013 624.068 295.883 624.068 295.883C624.143 295.949 630.886 282.971 631.916 275.89Z" fill="#FFFEE6"/>
</g>
<path opacity="0.15" d="M631.866 277.31C631.905 276.811 632.178 276.652 632.149 277.292C632.119 277.931 630.697 283.338 630.404 284.278C629.646 286.807 627.935 291.027 627.436 290.989C627.013 291.016 628.551 288.507 629.166 287.05C629.78 285.594 630.215 284.644 630.736 282.839C631.257 281.034 631.714 278.241 631.866 277.31Z" fill="#FFFEE6"/>
<path d="M625.956 287.825C625.524 287.711 625.469 286.864 625.847 286.131C627.465 281.563 628.224 277.971 628.686 273.052C628.706 272.271 629.045 272.036 629.478 272.15C629.976 272.189 630.343 272.378 630.322 273.158C629.72 278.086 628.837 281.97 627.37 286.671C627.067 287.47 626.389 287.939 625.956 287.825Z" fill="#E8B71C"/>
<g opacity="0.15">
<path opacity="0.15" d="M625.956 287.825C626.389 287.939 627.067 287.47 627.37 286.671C628.912 282.036 629.72 278.086 630.323 273.158C630.37 272.801 630.286 272.594 630.136 272.462C629.995 272.471 629.929 272.546 629.947 272.828C630.569 276.969 629.008 281.321 627.552 285.1C626.757 287.064 626.088 287.675 625.496 287.288C625.656 287.561 625.74 287.768 625.956 287.825Z" fill="#B7190D"/>
</g>
<g opacity="0.15">
<path opacity="0.15" d="M630.127 272.321C630.136 272.462 630.22 272.669 630.238 272.951C629.702 277.804 628.894 281.754 627.351 286.388C627.049 287.187 626.371 287.656 625.938 287.543C625.797 287.552 625.713 287.345 625.638 287.279C625.656 287.561 625.815 287.834 626.031 287.891C626.464 288.005 627.142 287.536 627.445 286.737C628.988 282.102 629.795 278.152 630.398 273.224C630.37 272.801 630.277 272.453 630.127 272.321Z" fill="#B7190D"/>
</g>
<g opacity="0.15">
<path opacity="0.15" d="M628.927 274.595C629.071 273.523 629.578 273.702 629.328 276.411C629.078 279.12 626.184 286.96 626.166 286.677C625.862 283.083 628.336 278.601 628.927 274.595Z" fill="#FFFEE6"/>
</g>
<path opacity="0.15" d="M628.916 275.517C628.898 275.234 629.105 275.15 629.132 275.574C629.085 275.931 628.514 279.156 628.4 279.589C628.143 281.094 627.743 283.67 627.385 283.623C627.028 283.575 627.642 282.118 627.87 281.253C628.097 280.388 628.277 279.88 628.486 278.733C628.696 277.586 628.877 276.015 628.916 275.517Z" fill="#FFFEE6"/>
<path d="M625.629 291.531C625.263 291.342 625.349 290.486 625.85 289.461C628.344 284.198 630.207 279.047 630.238 272.951C630.24 271.888 630.655 271.72 631.012 271.767C631.511 271.806 631.877 271.995 631.875 273.058C631.213 279.265 629.773 284.389 627.307 290.076C626.881 291.166 625.996 291.72 625.629 291.531Z" fill="#E8B71C"/>
<g opacity="0.15">
<path opacity="0.15" d="M625.629 291.531C625.996 291.72 626.806 291.1 627.382 290.142C629.848 284.455 631.213 279.265 631.95 273.124C631.923 272.701 631.904 272.418 631.745 272.145C631.604 272.154 631.538 272.229 631.565 272.653C632.26 277.922 630.349 283.431 628.035 288.186C626.778 290.677 625.968 291.296 625.451 290.975C625.329 291.267 625.413 291.474 625.629 291.531Z" fill="#B7190D"/>
</g>
<g opacity="0.15">
<path opacity="0.15" d="M631.529 272.088C631.613 272.295 631.631 272.578 631.65 272.86C631.054 278.992 629.689 284.182 627.288 289.794C626.713 290.752 625.902 291.371 625.536 291.182C625.461 291.116 625.31 290.984 625.301 290.843C625.254 291.201 625.272 291.483 625.563 291.606C625.93 291.795 626.74 291.175 627.316 290.217C629.782 284.531 631.147 279.341 631.884 273.199C631.914 272.559 631.754 272.286 631.529 272.088Z" fill="#B7190D"/>
</g>
<g opacity="0.15">
<path opacity="0.15" d="M630.441 274.993C630.566 273.639 631.299 274.016 630.803 277.308C630.164 281.672 626.177 290.149 626.177 290.149C626.036 290.158 629.716 280.212 630.441 274.993Z" fill="#FFFEE6"/>
</g>
<path opacity="0.15" d="M630.373 276.131C630.421 275.774 630.628 275.689 630.589 276.188C630.551 276.686 629.743 280.636 629.506 281.36C629.061 283.231 628.273 286.4 627.925 286.493C627.502 286.52 628.437 284.547 628.797 283.531C629.156 282.516 629.393 281.792 629.725 280.354C629.982 278.849 630.343 276.771 630.373 276.131Z" fill="#FFFEE6"/>
<path d="M629.239 288.18C628.806 288.066 628.752 287.219 629.054 286.42C630.513 281.578 631.311 277.488 631.773 272.569C631.718 271.722 632.132 271.553 632.555 271.526C633.054 271.565 633.42 271.753 633.475 272.6C633.182 277.934 632.375 281.883 630.643 286.884C630.35 287.824 629.747 288.359 629.239 288.18Z" fill="#E8B71C"/>
<g opacity="0.15">
<path opacity="0.15" d="M629.239 288.179C629.671 288.293 630.35 287.824 630.718 286.95C632.45 281.949 633.257 277.999 633.55 272.666C633.598 272.309 633.439 272.036 633.354 271.829C633.213 271.838 633.147 271.913 633.165 272.195C633.947 276.609 632.404 281.243 631.032 285.229C630.247 287.335 629.578 287.945 629.061 287.624C628.938 287.915 629.023 288.123 629.239 288.179Z" fill="#B7190D"/>
</g>
<g opacity="0.15">
<path opacity="0.15" d="M633.204 271.697C633.288 271.904 633.297 272.045 633.316 272.327C633.023 277.66 632.281 281.535 630.625 286.602C630.256 287.476 629.653 288.011 629.145 287.831C629.004 287.84 628.92 287.633 628.845 287.567C628.863 287.849 629.023 288.123 629.239 288.179C629.671 288.293 630.35 287.824 630.718 286.95C632.45 281.949 633.257 277.999 633.55 272.666C633.448 272.177 633.429 271.895 633.204 271.697Z" fill="#B7190D"/>
</g>
<g opacity="0.15">
<path opacity="0.15" d="M632.089 274.178C632.232 273.106 632.815 273.351 632.499 276.135C632.163 279.7 629.448 287.032 629.448 287.032C629.373 286.966 631.507 278.325 632.089 274.178Z" fill="#FFFEE6"/>
</g>
<path opacity="0.15" d="M632.078 275.1C632.06 274.817 632.267 274.733 632.294 275.157C632.321 275.58 631.685 278.881 631.655 279.52C631.473 281.091 631.082 283.809 630.659 283.836C630.235 283.863 630.907 282.19 631.134 281.325C631.362 280.46 631.532 279.812 631.741 278.664C631.942 277.376 632.114 275.664 632.078 275.1Z" fill="#FFFEE6"/>
<path d="M842.269 -18.2382C742.413 -122.605 652.079 -58.8732 682.365 -9.10467C709.481 35.4835 790.17 19.8507 825.837 55.3122C876.338 105.403 863.73 219.45 745.457 212.713C666.087 208.207 629.122 32.1051 558.905 37.6368C506.028 41.764 479.721 123.676 519.895 158.705C560.069 193.733 693.772 199.119 712.541 273.511C731.31 347.904 640.017 336.517 640.017 336.517" stroke="#3A3A3A" stroke-width="21" stroke-miterlimit="10" stroke-linecap="round" stroke-linejoin="round"/>
<path d="M609.08 339.154C609.119 338.656 610.248 338.583 611.677 338.774C619.305 339.485 627.031 338.419 634.037 334.99C635.27 334.343 635.637 334.532 635.871 334.871C636.115 335.352 636.076 335.85 634.843 336.497C627.564 340.085 619.556 341.17 611.712 340.401C610.216 340.286 609.042 339.653 609.08 339.154Z" fill="#E8B71C"/>
<g opacity="0.15">
<path opacity="0.15" d="M609.08 339.154C609.042 339.653 610.216 340.286 611.721 340.543C619.565 341.311 627.639 340.151 634.852 336.638C635.398 336.319 635.662 336.019 635.86 335.793C635.776 335.586 635.635 335.595 635.164 335.98C629.134 340.267 621.381 340.91 614.411 340.51C610.781 340.249 609.381 339.418 609.627 338.836C609.344 338.854 609.071 339.013 609.08 339.154Z" fill="#B7190D"/>
</g>
<g opacity="0.15">
<path opacity="0.15" d="M635.917 335.577C635.719 335.802 635.446 335.962 635.107 336.196C627.903 339.851 619.97 341.001 612.135 340.374C610.706 340.183 609.531 339.55 609.57 339.052C609.561 338.911 609.693 338.761 609.9 338.676C609.41 338.779 609.137 338.938 609.146 339.079C609.108 339.578 610.282 340.21 611.787 340.467C619.631 341.236 627.705 340.076 634.918 336.563C635.464 336.244 635.794 335.868 635.917 335.577Z" fill="#B7190D"/>
</g>
<g opacity="0.15">
<path opacity="0.15" d="M631.861 336.406C633.593 335.798 633.573 336.579 629.28 338.132C623.669 340.124 610.999 339.243 610.999 339.243C610.999 339.243 625.365 338.952 631.861 336.406Z" fill="#FFFEE6"/>
</g>
<path opacity="0.15" d="M630.627 337.053C631.041 336.884 631.333 337.007 630.711 337.26C630.165 337.579 624.866 338.913 623.887 339.118C621.299 339.64 616.943 340.205 616.774 339.791C616.54 339.452 619.38 339.551 620.933 339.451C622.41 339.285 623.473 339.287 625.28 338.745C627.097 338.344 629.733 337.465 630.627 337.053Z" fill="#FFFEE6"/>
<path d="M611.193 341.144C611.231 340.645 612.285 340.506 613.781 340.622C621.645 340.61 628.082 339.343 635.455 336.103C636.613 335.39 636.98 335.579 637.223 336.059C637.467 336.54 637.428 337.038 636.27 337.751C629.348 341.387 621.5 342.745 613.9 342.457C612.395 342.2 611.154 341.642 611.193 341.144Z" fill="#E8B71C"/>
<g opacity="0.15">
<path opacity="0.15" d="M611.193 341.144C611.154 341.642 612.395 342.2 613.749 342.325C621.425 342.679 629.198 341.255 636.12 337.619C636.6 337.375 636.864 337.075 637.062 336.849C636.978 336.642 636.837 336.651 636.365 337.036C630.618 341.305 623.166 342.212 616.355 342.085C612.809 342.031 611.484 341.266 611.655 340.618C611.382 340.777 611.184 341.002 611.193 341.144Z" fill="#B7190D"/>
</g>
<g opacity="0.15">
<path opacity="0.15" d="M637.194 336.699C636.996 336.924 636.723 337.084 636.384 337.318C629.537 341.02 621.764 342.444 614.097 342.231C612.602 342.115 611.502 341.549 611.541 341.05C611.532 340.909 611.664 340.759 611.871 340.675C611.382 340.777 611.109 340.936 611.127 341.219C611.088 341.717 612.329 342.275 613.683 342.4C621.359 342.754 629.132 341.33 636.054 337.694C636.807 337.291 637.137 336.915 637.194 336.699Z" fill="#B7190D"/>
</g>
<g opacity="0.15">
<path opacity="0.15" d="M633.279 337.519C634.936 336.845 634.991 337.692 630.839 339.236C625.445 341.285 613.103 341.091 613.103 341.091C613.103 341.091 626.933 340.197 633.279 337.519Z" fill="#FFFEE6"/>
</g>
<path opacity="0.15" d="M632.045 338.166C632.46 337.997 632.676 338.054 632.13 338.373C631.583 338.692 626.435 340.158 625.597 340.354C623.159 341.008 618.878 341.639 618.643 341.3C618.409 340.96 621.24 340.919 622.718 340.753C624.195 340.586 625.108 340.457 626.915 339.915C628.656 339.448 631.217 338.503 632.045 338.166Z" fill="#FFFEE6"/>
<path d="M611.227 342.771C611.266 342.273 612.461 342.124 613.89 342.315C621.707 342.66 629.546 341.162 636.6 337.375C637.758 336.663 638.191 336.776 638.435 337.257C638.678 337.737 638.64 338.235 637.415 339.023C630.022 343.044 622.156 344.119 613.934 344.084C612.429 343.827 611.189 343.27 611.227 342.771Z" fill="#E8B71C"/>
<g opacity="0.15">
<path opacity="0.15" d="M611.227 342.771C611.189 343.27 612.429 343.827 614 344.009C622.222 344.044 630.013 342.903 637.481 338.948C638.027 338.629 638.291 338.329 638.489 338.103C638.405 337.896 638.264 337.905 637.793 338.29C632.205 342.832 623.642 344.094 616.822 343.827C612.985 343.649 611.669 343.026 611.839 342.377C611.491 342.471 611.218 342.63 611.227 342.771Z" fill="#B7190D"/>
</g>
<g opacity="0.15">
<path opacity="0.15" d="M638.546 337.887C638.348 338.112 638.15 338.338 637.736 338.506C630.418 342.593 622.627 343.735 614.414 343.841C612.919 343.725 611.678 343.167 611.717 342.669C611.708 342.527 611.84 342.377 612.047 342.293C611.557 342.395 611.284 342.555 611.227 342.771C611.189 343.27 612.429 343.827 614 344.009C622.222 344.044 630.013 342.903 637.481 338.948C638.093 338.554 638.423 338.178 638.546 337.887Z" fill="#B7190D"/>
</g>
<g opacity="0.15">
<path opacity="0.15" d="M634.433 338.932C636.156 338.183 636.211 339.03 631.861 340.799C626.194 343.008 613.287 342.85 613.287 342.85C613.212 342.784 627.88 341.694 634.433 338.932Z" fill="#FFFEE6"/>
</g>
<path opacity="0.15" d="M633.124 339.513C633.605 339.27 633.83 339.468 633.209 339.72C632.662 340.039 627.241 341.665 626.337 341.936C623.758 342.599 619.269 343.314 619.035 342.975C618.8 342.636 621.773 342.585 623.25 342.419C624.794 342.177 625.782 342.114 627.655 341.497C629.678 341.011 632.305 339.991 633.124 339.513Z" fill="#FFFEE6"/>
<path d="M621.119 340.148C621.017 339.658 621.629 339.264 622.401 339.144C627.154 338.128 630.684 336.837 635.015 334.785C635.694 334.316 635.994 334.58 636.304 334.985C636.472 335.399 636.575 335.889 635.887 336.217C631.415 338.277 627.602 339.587 622.859 340.744C621.946 340.874 621.147 340.571 621.119 340.148Z" fill="#E8B71C"/>
<g opacity="0.15">
<path opacity="0.15" d="M621.12 340.148C621.222 340.637 621.946 340.874 622.859 340.744C627.602 339.587 631.415 338.277 635.887 336.217C636.16 336.057 636.358 335.832 636.415 335.616C636.406 335.475 636.265 335.484 635.992 335.643C632.769 338.402 628.224 339.334 624.375 340.079C622.276 340.498 621.402 340.129 621.431 339.49C621.092 339.724 621.035 339.94 621.12 340.148Z" fill="#B7190D"/>
</g>
<g opacity="0.15">
<path opacity="0.15" d="M636.406 335.475C636.274 335.625 636.142 335.775 635.935 335.859C631.538 337.986 627.725 339.295 622.982 340.452C622.069 340.582 621.411 340.27 621.242 339.856C621.233 339.715 621.224 339.574 621.356 339.424C621.083 339.583 621.026 339.799 621.044 340.082C621.147 340.571 621.871 340.808 622.784 340.678C627.527 339.521 631.34 338.211 635.812 336.151C636.226 335.982 636.349 335.691 636.406 335.475Z" fill="#B7190D"/>
</g>
<g opacity="0.15">
<path opacity="0.15" d="M633.866 335.639C634.836 335.293 634.938 335.782 632.537 337C630.135 338.218 621.882 339.886 622.221 339.651C625.057 337.484 630.213 337.221 633.866 335.639Z" fill="#FFFEE6"/>
</g>
<path opacity="0.15" d="M633.188 336.108C633.461 335.948 633.611 336.08 633.272 336.315C632.933 336.549 629.958 337.663 629.403 337.841C628.019 338.355 625.608 339.432 625.374 339.093C625.139 338.754 626.824 338.503 627.661 338.307C628.499 338.112 629.054 337.934 630.09 337.513C631.192 337.016 632.707 336.351 633.188 336.108Z" fill="#FFFEE6"/>
<path d="M617.749 341.712C617.721 341.288 618.475 340.885 619.604 340.812C625.372 340.156 630.755 339.029 635.935 335.859C636.821 335.306 637.187 335.495 637.356 335.909C637.524 336.323 637.551 336.747 636.666 337.3C631.026 339.932 625.952 341.465 619.845 342.356C618.725 342.57 617.851 342.201 617.749 341.712Z" fill="#E8B71C"/>
<g opacity="0.15">
<path opacity="0.15" d="M617.749 341.712C617.776 342.135 618.725 342.57 619.854 342.497C625.961 341.606 631.035 340.073 636.675 337.441C637.014 337.207 637.212 336.981 637.41 336.756C637.401 336.615 637.26 336.624 636.921 336.858C632.813 340.171 627.09 341.533 621.878 342.012C619.13 342.26 618.115 341.901 618.145 341.261C617.871 341.42 617.739 341.571 617.749 341.712Z" fill="#B7190D"/>
</g>
<g opacity="0.15">
<path opacity="0.15" d="M637.467 336.54C637.335 336.69 637.137 336.915 636.864 337.075C631.299 339.773 626.225 341.305 620.127 342.337C618.998 342.41 618.124 342.042 618.022 341.552C618.013 341.411 618.079 341.336 618.211 341.186C617.938 341.345 617.664 341.505 617.683 341.787C617.71 342.21 618.659 342.645 619.788 342.572C625.895 341.681 630.969 340.148 636.609 337.516C637.146 337.056 637.344 336.831 637.467 336.54Z" fill="#B7190D"/>
</g>
<g opacity="0.15">
<path opacity="0.15" d="M634.315 337.098C635.557 336.592 635.603 337.298 632.571 338.628C628.504 340.379 619.217 341.404 619.217 341.404C619.142 341.338 629.494 339.252 634.315 337.098Z" fill="#FFFEE6"/>
</g>
<path opacity="0.15" d="M633.429 337.651C633.702 337.492 633.994 337.615 633.514 337.858C633.174 338.093 629.296 339.477 628.599 339.664C626.726 340.281 623.601 341.263 623.442 340.989C623.207 340.65 625.39 340.438 626.435 340.158C627.479 339.878 628.251 339.757 629.635 339.243C630.878 338.737 632.742 337.979 633.429 337.651Z" fill="#FFFEE6"/>
<path d="M622.515 343.104C622.413 342.615 623.025 342.221 623.938 342.091C628.813 340.784 632.617 339.333 637.221 337.123C637.9 336.654 638.266 336.842 638.51 337.323C638.678 337.737 638.781 338.226 638.027 338.629C633.375 341.198 629.638 342.573 624.33 343.766C623.408 343.755 622.543 343.528 622.515 343.104Z" fill="#E8B71C"/>
<g opacity="0.15">
<path opacity="0.15" d="M622.515 343.104C622.618 343.594 623.417 343.896 624.254 343.7C629.421 342.516 633.159 341.141 637.952 338.563C638.291 338.329 638.423 338.179 638.48 337.962C638.471 337.821 638.33 337.83 638.057 337.99C634.702 340.899 629.959 342.056 625.836 342.96C623.672 343.455 622.732 343.161 622.761 342.521C622.563 342.747 622.431 342.897 622.515 343.104Z" fill="#B7190D"/>
</g>
<g opacity="0.15">
<path opacity="0.15" d="M638.537 337.746C638.405 337.896 638.273 338.047 638.066 338.131C633.414 340.699 629.676 342.074 624.518 343.4C623.606 343.53 622.807 343.227 622.713 342.879C622.704 342.738 622.695 342.597 622.827 342.446C622.554 342.606 622.431 342.897 622.515 343.104C622.618 343.594 623.417 343.896 624.254 343.7C629.421 342.516 633.159 341.141 637.952 338.563C638.357 338.254 638.555 338.028 638.537 337.746Z" fill="#B7190D"/>
</g>
<g opacity="0.15">
<path opacity="0.15" d="M635.94 338.127C636.976 337.705 637.012 338.27 634.545 339.563C631.315 341.118 623.692 342.674 623.692 342.674C623.608 342.467 632.08 339.793 635.94 338.127Z" fill="#FFFEE6"/>
</g>
<path opacity="0.15" d="M635.121 338.605C635.394 338.445 635.544 338.577 635.205 338.812C634.866 339.046 631.759 340.31 631.203 340.488C629.754 341.077 627.202 342.164 627.043 341.89C626.808 341.551 628.558 341.226 629.462 340.955C630.366 340.684 630.921 340.506 632.023 340.01C633.134 339.654 634.64 338.848 635.121 338.605Z" fill="#FFFEE6"/>
</g>
<defs>
<clipPath id="clip0_296_63">
<rect width="1033" height="474" fill="white" transform="translate(312.846 -500) rotate(41.3008)"/>
</clipPath>
</defs>
</svg>
