<svg width="615" height="403" viewBox="0 0 615 403" fill="none" xmlns="http://www.w3.org/2000/svg">
<path d="M10 371C153.589 240.278 132.417 162.647 164.99 234.769C197.562 306.891 217.377 401.552 255.106 346.458C292.836 291.365 317.265 121.577 349.023 174.667C380.781 227.757 373.602 387.14 399.51 314.404C456.24 155.134 552.599 106.886 583 76" stroke="#BBC3CE" stroke-width="4" stroke-linecap="round" stroke-dasharray="10 10"/>
<rect x="270" y="80" width="137" height="49" rx="8" fill="#5364FF"/>
<path d="M284.297 109.5V98.3H290.041C291.406 98.3 292.425 98.636 293.097 99.308C293.577 99.788 293.817 100.401 293.817 101.148C293.817 102.311 293.241 103.143 292.089 103.644C292.814 103.879 293.363 104.215 293.737 104.652C294.121 105.089 294.313 105.676 294.313 106.412C294.313 107.372 293.939 108.129 293.193 108.684C292.446 109.228 291.406 109.5 290.073 109.5H284.297ZM287.321 107.004H289.721C290.713 107.004 291.209 106.652 291.209 105.948C291.209 105.276 290.702 104.94 289.689 104.94H287.321V107.004ZM287.321 102.764H289.273C290.254 102.764 290.745 102.428 290.745 101.756C290.745 101.116 290.275 100.796 289.337 100.796H287.321V102.764ZM298.038 109.692C297.185 109.692 296.486 109.457 295.942 108.988C295.398 108.508 295.126 107.841 295.126 106.988C295.126 106.113 295.43 105.441 296.038 104.972C296.646 104.503 297.473 104.268 298.518 104.268C299.276 104.268 299.969 104.38 300.598 104.604V104.46C300.598 103.521 300.022 103.052 298.87 103.052C298.092 103.052 297.297 103.212 296.486 103.532L295.862 101.388C296.95 100.94 298.118 100.716 299.366 100.716C300.86 100.716 301.958 101.068 302.662 101.772C303.281 102.38 303.59 103.297 303.59 104.524V109.5H300.582V108.604C299.932 109.329 299.084 109.692 298.038 109.692ZM299.126 107.788C299.574 107.788 299.937 107.66 300.214 107.404C300.492 107.137 300.63 106.791 300.63 106.364V105.964C300.278 105.815 299.884 105.74 299.446 105.74C299.009 105.74 298.668 105.841 298.422 106.044C298.177 106.236 298.054 106.503 298.054 106.844C298.054 107.132 298.15 107.361 298.342 107.532C298.545 107.703 298.806 107.788 299.126 107.788ZM305.136 109.5V100.844H308.176V107.052H310.304V100.844H313.344V107.052H315.472V100.844H318.512V109.5H305.136ZM324.589 109.5V100.844H333.037V109.5H329.997V103.292H327.629V109.5H324.589ZM334.668 112.06V100.844H337.708V101.996C338.444 101.1 339.318 100.652 340.332 100.652C341.398 100.652 342.305 101.068 343.052 101.9C343.798 102.721 344.172 103.809 344.172 105.164C344.172 106.529 343.798 107.628 343.052 108.46C342.316 109.281 341.414 109.692 340.348 109.692C339.302 109.692 338.422 109.276 337.708 108.444V112.06H334.668ZM339.404 107.148C339.905 107.148 340.326 106.961 340.668 106.588C341.009 106.215 341.18 105.735 341.18 105.148C341.18 104.583 341.009 104.119 340.668 103.756C340.326 103.383 339.905 103.196 339.404 103.196C338.913 103.196 338.497 103.383 338.156 103.756C337.814 104.129 337.644 104.604 337.644 105.18C337.644 105.745 337.814 106.215 338.156 106.588C338.497 106.961 338.913 107.148 339.404 107.148ZM349.896 109.708C348.531 109.708 347.395 109.271 346.488 108.396C345.581 107.511 345.128 106.439 345.128 105.18C345.128 103.932 345.581 102.865 346.488 101.98C347.405 101.095 348.552 100.652 349.928 100.652C351.293 100.652 352.429 101.095 353.336 101.98C354.243 102.855 354.696 103.921 354.696 105.18C354.696 106.428 354.237 107.495 353.32 108.38C352.413 109.265 351.272 109.708 349.896 109.708ZM349.928 107.132C350.472 107.132 350.909 106.945 351.24 106.572C351.571 106.199 351.736 105.735 351.736 105.18C351.736 104.647 351.56 104.188 351.208 103.804C350.856 103.42 350.419 103.228 349.896 103.228C349.352 103.228 348.915 103.415 348.584 103.788C348.253 104.161 348.088 104.625 348.088 105.18C348.088 105.713 348.264 106.172 348.616 106.556C348.968 106.94 349.405 107.132 349.928 107.132ZM355.324 111.26V107.052H356.124C356.391 106.284 356.583 105.479 356.7 104.636C356.828 103.793 356.892 102.668 356.892 101.26V100.844H364.604V107.052H365.612L365.324 111.26H362.732V109.5H358.204L358.044 111.26H355.324ZM359.228 107.052H361.548V103.26H359.788V103.404C359.756 104.684 359.569 105.9 359.228 107.052ZM368.993 112.108C368.033 112.108 367.105 111.857 366.209 111.356L367.153 109.228C367.665 109.537 368.108 109.692 368.481 109.692C368.78 109.692 369.015 109.575 369.185 109.34L365.793 100.844H368.977L370.705 106.06L372.337 100.844H375.457L372.289 109.292C371.905 110.316 371.473 111.041 370.993 111.468C370.513 111.895 369.847 112.108 368.993 112.108ZM376.449 109.5V100.844H379.489V104.06L381.841 100.844H385.281L382.321 104.396L385.361 109.5H382.017L380.369 106.732L379.489 107.788V109.5H376.449ZM387.961 109.5V103.292H385.433V100.844H393.529V103.292H391.001V109.5H387.961Z" fill="white"/>
<path fill-rule="evenodd" clip-rule="evenodd" d="M348 129L329 129L334.702 137C336.602 139.667 340.398 139.667 342.298 137L348 129Z" fill="#5364FF"/>
<path d="M5.51818 365.626C2.41795 372.735 -0.327974 384.419 13.4902 374.29C27.3084 364.16 43.6068 295.876 50.0287 263C51.8002 308.982 64.1421 385.026 72.2301 394.282C87.3706 411.608 94.2354 376.067 98 370.291" stroke="url(#paint0_linear_2202_59)" stroke-width="6" stroke-linecap="round"/>
<g filter="url(#filter0_d_2202_59)">
<path d="M24 352C55.2151 352 66.3396 333.333 68 324" stroke="url(#paint1_linear_2202_59)" stroke-width="6" stroke-linecap="round"/>
</g>
<path d="M543 124.646C565.783 149.29 570.34 110.749 574.245 97.1304C578.151 83.5115 597.846 -29.9796 599.147 14.1197C600.449 58.219 589.217 185.977 612 124.646" stroke="url(#paint2_linear_2202_59)" stroke-width="6" stroke-linecap="round"/>
<g filter="url(#filter1_d_2202_59)">
<path d="M596 13.988C572.845 -6.77338 540.646 5.231 534.166 22.4221C521.302 56.5489 549.603 89.6374 583.693 55.9001" stroke="url(#paint3_linear_2202_59)" stroke-width="6" stroke-linecap="round"/>
</g>
<defs>
<filter id="filter0_d_2202_59" x="11" y="315" width="70.0005" height="54.0005" filterUnits="userSpaceOnUse" color-interpolation-filters="sRGB">
<feFlood flood-opacity="0" result="BackgroundImageFix"/>
<feColorMatrix in="SourceAlpha" type="matrix" values="0 0 0 0 0 0 0 0 0 0 0 0 0 0 0 0 0 0 127 0" result="hardAlpha"/>
<feOffset dy="4"/>
<feGaussianBlur stdDeviation="5"/>
<feComposite in2="hardAlpha" operator="out"/>
<feColorMatrix type="matrix" values="0 0 0 0 0 0 0 0 0 0 0 0 0 0 0 0 0 0 0.55 0"/>
<feBlend mode="normal" in2="BackgroundImageFix" result="effect1_dropShadow_2202_59"/>
<feBlend mode="normal" in="SourceGraphic" in2="effect1_dropShadow_2202_59" result="shape"/>
</filter>
<filter id="filter1_d_2202_59" x="524.005" y="0.000732422" width="78.9954" height="80.9993" filterUnits="userSpaceOnUse" color-interpolation-filters="sRGB">
<feFlood flood-opacity="0" result="BackgroundImageFix"/>
<feColorMatrix in="SourceAlpha" type="matrix" values="0 0 0 0 0 0 0 0 0 0 0 0 0 0 0 0 0 0 127 0" result="hardAlpha"/>
<feOffset dy="4"/>
<feGaussianBlur stdDeviation="2"/>
<feComposite in2="hardAlpha" operator="out"/>
<feColorMatrix type="matrix" values="0 0 0 0 0 0 0 0 0 0 0 0 0 0 0 0 0 0 0.25 0"/>
<feBlend mode="normal" in2="BackgroundImageFix" result="effect1_dropShadow_2202_59"/>
<feBlend mode="normal" in="SourceGraphic" in2="effect1_dropShadow_2202_59" result="shape"/>
</filter>
<linearGradient id="paint0_linear_2202_59" x1="126.585" y1="277.828" x2="126.585" y2="409.813" gradientUnits="userSpaceOnUse">
<stop stop-color="#5364FF"/>
<stop offset="0.557292" stop-color="#3A4EFF"/>
<stop offset="1" stop-color="#7553FF"/>
</linearGradient>
<linearGradient id="paint1_linear_2202_59" x1="81.2395" y1="327.053" x2="81.2395" y2="354.226" gradientUnits="userSpaceOnUse">
<stop stop-color="#5364FF"/>
<stop offset="0.557292" stop-color="#3A4EFF"/>
<stop offset="1" stop-color="#7553FF"/>
</linearGradient>
<linearGradient id="paint2_linear_2202_59" x1="632.762" y1="18.9375" x2="632.762" y2="151.893" gradientUnits="userSpaceOnUse">
<stop stop-color="#5364FF"/>
<stop offset="0.557292" stop-color="#3A4EFF"/>
<stop offset="1" stop-color="#7553FF"/>
</linearGradient>
<linearGradient id="paint3_linear_2202_59" x1="615.558" y1="10.3052" x2="615.558" y2="75.3272" gradientUnits="userSpaceOnUse">
<stop stop-color="#5364FF"/>
<stop offset="0.557292" stop-color="#3A4EFF"/>
<stop offset="1" stop-color="#7553FF"/>
</linearGradient>
</defs>
</svg>
